<svg width="141" height="39" viewBox="0 0 141 39" fill="none" xmlns="http://www.w3.org/2000/svg">
<path d="M110.253 24.2494C111.525 24.2494 112.4 23.494 112.876 21.9833C113.13 21.1643 113.258 20.0962 113.258 18.7792C113.258 16.9696 112.986 15.6055 112.444 14.6869C111.907 13.7683 111.177 13.3089 110.253 13.3089C108.969 13.3089 108.089 14.0754 107.613 15.6083C107.364 16.4217 107.24 17.4787 107.24 18.7792C107.24 20.1018 107.367 21.1698 107.621 21.9833C108.092 23.494 108.969 24.2494 110.253 24.2494ZM110.253 12.7362C111.968 12.7362 113.393 13.2896 114.528 14.3964C115.695 15.5308 116.279 16.9917 116.279 18.7792C116.279 20.5666 115.695 22.0275 114.528 23.162C113.388 24.2687 111.963 24.8221 110.253 24.8221C108.438 24.8221 106.957 24.2162 105.812 23.0043C104.744 21.8643 104.21 20.4864 104.21 18.8705C104.21 17.0886 104.769 15.6249 105.886 14.4794C107.015 13.3172 108.471 12.7362 110.253 12.7362Z" fill="#432F68"/>
<path d="M91.6091 24.0502C92.0352 24.0225 92.3424 23.9616 92.5305 23.8675C92.8625 23.696 93.0286 23.3833 93.0286 22.9296V14.5458C93.0286 14.1086 92.8708 13.8042 92.5554 13.6327C92.3728 13.5331 92.0574 13.4639 91.6091 13.4252V12.9935H96.8054C98.9028 12.9935 100.502 13.5524 101.603 14.6703C102.605 15.6885 103.106 17.0554 103.106 18.7709C103.106 20.3093 102.602 21.6125 101.595 22.6805C100.461 23.8814 98.9221 24.4818 96.9797 24.4818H91.6091V24.0502ZM95.7761 22.913C95.7927 23.2616 95.8564 23.5134 95.967 23.6683C96.0833 23.8233 96.3267 23.9007 96.6975 23.9007C97.7047 23.9007 98.532 23.5466 99.1794 22.8382C99.8269 22.1244 100.151 20.7575 100.151 18.7377C100.151 17.5368 99.9763 16.5047 99.6277 15.6415C99.0632 14.2525 98.1114 13.558 96.7722 13.558C96.3295 13.558 96.0417 13.652 95.9089 13.8402C95.8204 13.9619 95.7761 14.1971 95.7761 14.5458V22.913Z" fill="#432F68"/>
<path d="M81.4075 12.9935V13.4252C80.8209 13.4584 80.4446 13.5026 80.2786 13.558C80.1125 13.6133 80.0295 13.7295 80.0295 13.9066C80.0295 13.9841 80.0434 14.0699 80.071 14.1639C80.1042 14.2525 80.1762 14.4157 80.2869 14.6537L82.4119 18.7377H82.553L84.3792 15.7494C84.4954 15.5668 84.6171 15.3426 84.7444 15.077C84.9381 14.673 85.0349 14.3742 85.0349 14.1805C85.0349 13.8817 84.9159 13.6825 84.678 13.5829C84.5175 13.5165 84.1633 13.4639 83.6155 13.4252V12.9935H87.3508V13.4252C87.0797 13.475 86.8639 13.5331 86.7034 13.5995C86.4986 13.7046 86.3271 13.8651 86.1887 14.0809L82.9431 19.3685V22.4979C82.9431 23.1454 83.0538 23.5632 83.2751 23.7513C83.4965 23.9339 83.9115 24.0336 84.5203 24.0502V24.4818H78.6184V24.0502C79.2493 24.0336 79.6671 23.9256 79.8718 23.7264C80.0821 23.5272 80.1873 23.1177 80.1873 22.4979V19.9994L77.0828 14.3548C76.878 13.9841 76.6262 13.724 76.3274 13.5746C76.1282 13.4805 75.9262 13.4307 75.7214 13.4252V12.9935H81.4075Z" fill="#432F68"/>
<path d="M62.6726 24.0502C63.1319 24.0336 63.4584 23.9727 63.6521 23.8675C63.9786 23.6905 64.1418 23.3529 64.1418 22.8548V14.6288C64.1418 14.1363 63.9924 13.8042 63.6936 13.6327C63.511 13.5275 63.1707 13.4584 62.6726 13.4252V12.9935H68.4167V13.4252C67.8302 13.475 67.4345 13.5856 67.2297 13.7572C67.025 13.9287 66.9226 14.3382 66.9226 14.9857V18.6214L70.5833 14.9193C70.8378 14.6647 71.0011 14.4849 71.073 14.3797C71.1505 14.2691 71.1892 14.1363 71.1892 13.9813C71.1892 13.7655 71.0896 13.6271 70.8904 13.5663C70.6967 13.5054 70.3176 13.4584 69.7532 13.4252V12.9935H74.6755V13.4252C73.7957 13.4971 73.0652 13.7461 72.4841 14.1722C71.9086 14.5983 70.8157 15.6359 69.2053 17.285L74.3933 23.7015C74.504 23.8399 74.6119 23.9284 74.717 23.9672C74.8277 24.0004 74.9965 24.028 75.2234 24.0502V24.4818H69.5208V24.0502C70.0354 24.0446 70.3868 24.0225 70.575 23.9838C70.7631 23.945 70.8572 23.8482 70.8572 23.6932C70.8572 23.6213 70.8267 23.53 70.7659 23.4193C70.705 23.3031 70.5971 23.1481 70.4421 22.9545L67.3542 19.0946L66.9226 19.5262V22.8548C66.9226 23.3474 67.0859 23.6822 67.4124 23.8592C67.6005 23.9644 67.927 24.028 68.3918 24.0502V24.4818H62.6726V24.0502Z" fill="#432F68"/>
<path d="M56.53 12.7777C57.2384 12.7777 57.955 12.9105 58.6799 13.1761C59.4049 13.4362 59.8088 13.5663 59.8918 13.5663C60.1077 13.5663 60.2792 13.4833 60.4065 13.3172C60.5393 13.1512 60.6223 12.9769 60.6555 12.7943H61.1287V16.7704H60.697C60.2875 15.9071 59.8697 15.2264 59.4436 14.7284C58.6467 13.8098 57.7447 13.3505 56.7375 13.3505C55.5976 13.3505 54.7869 13.843 54.3054 14.828C53.8295 15.8075 53.5916 17.1245 53.5916 18.7792C53.5916 19.9966 53.7327 20.9982 54.0149 21.784C54.5406 23.2561 55.5173 23.9921 56.9451 23.9921C57.8194 23.9921 58.6329 23.7486 59.3855 23.2616C59.8171 22.9794 60.3263 22.5283 60.9128 21.9086L61.4192 22.3236C60.7551 23.0651 60.1713 23.6019 59.6677 23.9339C58.7712 24.5261 57.7751 24.8221 56.6794 24.8221C55.0027 24.8221 53.5971 24.3241 52.4626 23.328C51.2065 22.2268 50.5784 20.7437 50.5784 18.8788C50.5784 17.0305 51.1788 15.5336 52.3796 14.3881C53.5085 13.3145 54.892 12.7777 56.53 12.7777Z" fill="#432F68"/>
<path d="M43.6057 24.0502C44.0872 24.0391 44.433 23.981 44.6433 23.8758C44.9864 23.6988 45.158 23.3584 45.158 22.8548V14.6288C45.158 14.1252 44.9947 13.7876 44.6682 13.6161C44.469 13.5109 44.1148 13.4473 43.6057 13.4252V12.9935H49.5491V13.4252C49.0178 13.4473 48.6526 13.5082 48.4534 13.6078C48.1213 13.7793 47.9553 14.1197 47.9553 14.6288V22.8548C47.9553 23.3308 48.0881 23.649 48.3538 23.8094C48.6194 23.9699 49.0178 24.0502 49.5491 24.0502V24.4818H43.6057V24.0502Z" fill="#432F68"/>
<path d="M32.4412 12.9935H42.676L42.6926 16.4217H42.2029C42.0424 15.1988 41.5831 14.3714 40.825 13.9398C40.3988 13.7019 39.7625 13.5718 38.9158 13.5497V22.4979C38.9158 23.1232 39.0237 23.5383 39.2395 23.743C39.4609 23.9478 39.9174 24.0502 40.6091 24.0502V24.4818H34.5496V24.0502C35.2136 24.0502 35.6536 23.9478 35.8694 23.743C36.0907 23.5327 36.2014 23.1177 36.2014 22.4979V13.5497C35.3713 13.5718 34.7349 13.7019 34.2922 13.9398C33.4788 14.3825 33.0194 15.2098 32.9143 16.4217H32.4246L32.4412 12.9935Z" fill="#432F68"/>
<path d="M23.1194 20.514H23.6091C23.8858 21.7813 24.3313 22.7027 24.9456 23.2782C25.5653 23.8537 26.2737 24.1415 27.0706 24.1415C27.8453 24.1415 28.3959 23.945 28.7224 23.5521C29.0489 23.1537 29.2122 22.7359 29.2122 22.2987C29.2122 21.7896 29.0406 21.3745 28.6975 21.0536C28.4706 20.8433 28.0141 20.5694 27.3279 20.2318L26.2239 19.6839C25.1282 19.1416 24.3562 18.6048 23.908 18.0736C23.4597 17.5423 23.2356 16.8866 23.2356 16.1063C23.2356 15.2762 23.5317 14.5015 24.1238 13.7821C24.7214 13.0627 25.6345 12.703 26.863 12.703C27.4884 12.703 28.0916 12.7971 28.6726 12.9852C29.2592 13.1734 29.594 13.2674 29.677 13.2674C29.8652 13.2674 29.9952 13.2149 30.0671 13.1097C30.1391 12.9991 30.1972 12.8552 30.2415 12.6781H30.7478V16.3802H30.2747C30.0478 15.5225 29.6466 14.7837 29.071 14.1639C28.5011 13.5441 27.8066 13.2342 26.9875 13.2342C26.412 13.2342 25.9555 13.392 25.6179 13.7074C25.2859 14.0173 25.1199 14.3964 25.1199 14.8446C25.1199 15.3814 25.2776 15.7826 25.593 16.0482C25.9029 16.3194 26.5919 16.7178 27.6599 17.2435L28.9382 17.8744C29.5082 18.1566 29.962 18.4693 30.2996 18.8124C30.9304 19.4543 31.2458 20.2346 31.2458 21.1532C31.2458 22.0109 30.9055 22.8216 30.2249 23.5853C29.5497 24.3435 28.4651 24.7225 26.9709 24.7225C26.6278 24.7225 26.2792 24.6893 25.925 24.6229C25.5764 24.562 25.2306 24.4652 24.8875 24.3324L24.5554 24.2079C24.4779 24.1857 24.4032 24.1691 24.3313 24.1581C24.2594 24.1415 24.1985 24.1332 24.1487 24.1332C23.9716 24.1332 23.8499 24.1857 23.7834 24.2909C23.717 24.3905 23.6589 24.5344 23.6091 24.7225H23.1194V20.514Z" fill="#432F68"/>
<path d="M139.561 19.2021C139.561 16.8145 137.789 14.4192 134.285 12.1475C130.803 9.88981 125.73 7.83739 119.417 6.10645C106.798 2.64647 89.3369 0.500018 70.0303 0.5C50.7235 0.5 33.2623 2.64646 20.6436 6.10645C14.3306 7.83741 9.25806 9.88976 5.77539 12.1475C2.27098 14.4193 0.5 16.8145 0.5 19.2021C0.500181 21.5897 2.27111 23.9851 5.77539 26.2568C9.25805 28.5145 14.3308 30.566 20.6436 32.2969C33.2623 35.7569 50.7235 37.9033 70.0303 37.9033V38.4033L68.2227 38.3975C30.6821 38.1367 0.483298 29.7754 0.00585938 19.4502L0 19.2021C0 8.5973 31.3538 0 70.0303 0L71.8379 0.00585938C109.679 0.268782 140.061 8.76303 140.061 19.2021L140.055 19.4502C139.57 29.9405 108.404 38.4033 70.0303 38.4033V37.9033C89.3369 37.9033 106.798 35.7568 119.417 32.2969C125.73 30.5659 130.803 28.5145 134.285 26.2568C137.789 23.9851 139.56 21.5897 139.561 19.2021Z" fill="#432F68"/>
</svg>
